# MagicaVoxel @ Ephtracy

# group
o 

# material
mtllib elf_without_arm.mtl
usemtl palette

# normals
vn -1 0 0
vn 1 0 0
vn 0 0 1
vn 0 0 -1
vn 0 -1 0
vn 0 1 0

# texcoords
vt 0.0566406 0.5
vt 0.314453 0.5
vt 0.318359 0.5
vt 0.478516 0.5
vt 0.595703 0.5
vt 0.849609 0.5
vt 0.958984 0.5
vt 0.994141 0.5

# verts
v -0.5 2.3 0.1
v -0.5 2.3 0
v -0.5 2.5 0.1
v -0.5 2.5 0
v -0.4 0 0.2
v -0.4 0 -0.2
v -0.4 0.1 0.2
v -0.4 0.1 0
v -0.4 0.2 0.2
v -0.4 0.2 0
v -0.4 0.2 -0.2
v -0.4 0.3 0.2
v -0.4 0.3 0
v -0.4 0.4 0.2
v -0.4 0.4 0
v -0.4 0.5 0.2
v -0.4 0.5 0
v -0.4 0.6 0.2
v -0.4 0.6 0
v -0.4 0.7 0.2
v -0.4 0.7 0
v -0.4 0.8 0.2
v -0.4 0.8 0
v -0.4 0.9 0.4
v -0.4 0.9 0.2
v -0.4 0.9 0
v -0.4 0.9 -0.2
v -0.4 1.2 0.4
v -0.4 1.2 -0.2
v -0.4 1.3 0.4
v -0.4 1.3 -0.2
v -0.4 1.7 0.4
v -0.4 1.7 -0.2
v -0.4 2.2 0.1
v -0.4 2.2 0
v -0.4 2.3 0.1
v -0.4 2.3 0
v -0.3 1.9 0.4
v -0.3 1.9 0.3
v -0.3 1.9 -0.2
v -0.3 2.1 0.3
v -0.3 2.1 0.2
v -0.3 2.2 0.2
v -0.3 2.2 0.1
v -0.3 2.2 0
v -0.3 2.4 0
v -0.3 2.4 -0.2
v -0.3 2.5 0.4
v -0.3 2.5 0.1
v -0.3 2.5 0
v -0.3 2.5 -0.2
v -0.3 2.6 0.4
v -0.3 2.6 -0.2
v -0.3 2.7 0.4
v -0.3 2.7 -0.2
v -0.2 1.7 0.3
v -0.2 1.7 -0.1
v -0.2 1.8 0.3
v -0.2 1.8 -0.1
v -0.2 1.9 0.3
v -0.2 1.9 -0.1
v -0.2 2.7 0.3
v -0.2 2.7 -0.1
v -0.2 2.8 0.3
v -0.2 2.8 -0.1
v -0.1 2.8 0.2
v -0.1 2.8 0
v -0.1 2.9 0.2
v -0.1 2.9 0
v -0.1 3 0.2
v -0.1 3 0
v 0.2 0 0.2
v 0.2 0 -0.2
v 0.2 0.1 0.2
v 0.2 0.1 0
v 0.2 0.2 0.2
v 0.2 0.2 0
v 0.2 0.2 -0.2
v 0.2 0.3 0.2
v 0.2 0.3 0
v 0.2 0.4 0.2
v 0.2 0.4 0
v 0.2 0.5 0.2
v 0.2 0.5 0
v 0.2 0.6 0.2
v 0.2 0.6 0
v 0.2 0.7 0.2
v 0.2 0.7 0
v 0.2 0.8 0.2
v 0.2 0.8 0
v 0.2 0.9 0.2
v 0.2 0.9 0
v -0.2 0 0.2
v -0.2 0 -0.2
v -0.2 0.1 0.2
v -0.2 0.1 0
v -0.2 0.2 0.2
v -0.2 0.2 0
v -0.2 0.2 -0.2
v -0.2 0.3 0.2
v -0.2 0.3 0
v -0.2 0.4 0.2
v -0.2 0.4 0
v -0.2 0.5 0.2
v -0.2 0.5 0
v -0.2 0.6 0.2
v -0.2 0.6 0
v -0.2 0.7 0.2
v -0.2 0.7 0
v -0.2 0.8 0.2
v -0.2 0.8 0
v -0.2 0.9 0.2
v -0.2 0.9 0
v 0.1 2.8 0.2
v 0.1 2.8 0
v 0.1 2.9 0.2
v 0.1 2.9 0
v 0.1 3 0.2
v 0.1 3 0
v 0.2 1.7 0.3
v 0.2 1.7 -0.1
v 0.2 1.8 0.3
v 0.2 1.8 -0.1
v 0.2 1.9 0.3
v 0.2 1.9 -0.1
v 0.2 2.7 0.3
v 0.2 2.7 -0.1
v 0.2 2.8 0.3
v 0.2 2.8 -0.1
v 0.3 1.9 0.4
v 0.3 1.9 0.3
v 0.3 1.9 -0.2
v 0.3 2.1 0.3
v 0.3 2.1 0.2
v 0.3 2.2 0.2
v 0.3 2.2 0.1
v 0.3 2.2 0
v 0.3 2.4 0
v 0.3 2.4 -0.2
v 0.3 2.5 0.4
v 0.3 2.5 0.1
v 0.3 2.5 0
v 0.3 2.5 -0.2
v 0.3 2.6 0.4
v 0.3 2.6 -0.2
v 0.3 2.7 0.4
v 0.3 2.7 -0.2
v 0.4 0 0.2
v 0.4 0 -0.2
v 0.4 0.1 0.2
v 0.4 0.1 0
v 0.4 0.2 0.2
v 0.4 0.2 0
v 0.4 0.2 -0.2
v 0.4 0.3 0.2
v 0.4 0.3 0
v 0.4 0.4 0.2
v 0.4 0.4 0
v 0.4 0.5 0.2
v 0.4 0.5 0
v 0.4 0.6 0.2
v 0.4 0.6 0
v 0.4 0.7 0.2
v 0.4 0.7 0
v 0.4 0.8 0.2
v 0.4 0.8 0
v 0.4 0.9 0.4
v 0.4 0.9 0.2
v 0.4 0.9 0
v 0.4 0.9 -0.2
v 0.4 1 0.2
v 0.4 1 0
v 0.4 1.1 0.2
v 0.4 1.1 0
v 0.4 1.2 0.4
v 0.4 1.2 0.2
v 0.4 1.2 0
v 0.4 1.2 -0.2
v 0.4 1.3 0.4
v 0.4 1.3 0.2
v 0.4 1.3 0
v 0.4 1.3 -0.2
v 0.4 1.7 0.4
v 0.4 1.7 0.2
v 0.4 1.7 0
v 0.4 1.7 -0.2
v 0.4 2.2 0.1
v 0.4 2.2 0
v 0.4 2.3 0.1
v 0.4 2.3 0
v 0.5 2.3 0.1
v 0.5 2.3 0
v 0.5 2.5 0.1
v 0.5 2.5 0
v 0.6 0.9 0.2
v 0.6 0.9 0
v 0.6 1 0.2
v 0.6 1 0
v 0.6 1.1 0.2
v 0.6 1.1 0
v 0.6 1.7 0.2
v 0.6 1.7 0
v -0.4 0.9 0.4
v -0.4 1.2 0.4
v -0.4 1.3 0.4
v -0.4 1.7 0.4
v -0.3 1.9 0.4
v -0.3 2.5 0.4
v -0.3 2.6 0.4
v -0.3 2.7 0.4
v 0.3 1.9 0.4
v 0.3 2.5 0.4
v 0.3 2.6 0.4
v 0.3 2.7 0.4
v 0.4 0.9 0.4
v 0.4 1.2 0.4
v 0.4 1.3 0.4
v 0.4 1.7 0.4
v -0.2 1.7 0.3
v -0.2 1.8 0.3
v -0.2 1.9 0.3
v -0.2 2.7 0.3
v -0.2 2.8 0.3
v 0.2 1.7 0.3
v 0.2 1.8 0.3
v 0.2 1.9 0.3
v 0.2 2.7 0.3
v 0.2 2.8 0.3
v -0.4 0 0.2
v -0.4 0.1 0.2
v -0.4 0.2 0.2
v -0.4 0.3 0.2
v -0.4 0.4 0.2
v -0.4 0.5 0.2
v -0.4 0.6 0.2
v -0.4 0.7 0.2
v -0.4 0.8 0.2
v -0.4 0.9 0.2
v -0.2 0 0.2
v -0.2 0.1 0.2
v -0.2 0.2 0.2
v -0.2 0.3 0.2
v -0.2 0.4 0.2
v -0.2 0.5 0.2
v -0.2 0.6 0.2
v -0.2 0.7 0.2
v -0.2 0.8 0.2
v -0.2 0.9 0.2
v -0.1 2.8 0.2
v -0.1 2.9 0.2
v -0.1 3 0.2
v 0.1 2.8 0.2
v 0.1 2.9 0.2
v 0.1 3 0.2
v 0.2 0 0.2
v 0.2 0.1 0.2
v 0.2 0.2 0.2
v 0.2 0.3 0.2
v 0.2 0.4 0.2
v 0.2 0.5 0.2
v 0.2 0.6 0.2
v 0.2 0.7 0.2
v 0.2 0.8 0.2
v 0.2 0.9 0.2
v 0.4 0 0.2
v 0.4 0.1 0.2
v 0.4 0.2 0.2
v 0.4 0.3 0.2
v 0.4 0.4 0.2
v 0.4 0.5 0.2
v 0.4 0.6 0.2
v 0.4 0.7 0.2
v 0.4 0.8 0.2
v 0.4 0.9 0.2
v 0.4 1 0.2
v 0.4 1.1 0.2
v 0.4 1.2 0.2
v 0.4 1.3 0.2
v 0.4 1.7 0.2
v 0.6 0.9 0.2
v 0.6 1 0.2
v 0.6 1.1 0.2
v 0.6 1.7 0.2
v -0.5 2.3 0.1
v -0.5 2.5 0.1
v -0.4 2.2 0.1
v -0.4 2.3 0.1
v -0.3 2.2 0.1
v -0.3 2.5 0.1
v 0.3 2.2 0.1
v 0.3 2.5 0.1
v 0.4 2.2 0.1
v 0.4 2.3 0.1
v 0.5 2.3 0.1
v 0.5 2.5 0.1
v -0.5 2.3 0
v -0.5 2.5 0
v -0.4 0.2 0
v -0.4 0.3 0
v -0.4 0.4 0
v -0.4 0.5 0
v -0.4 0.6 0
v -0.4 0.7 0
v -0.4 0.8 0
v -0.4 0.9 0
v -0.4 2.2 0
v -0.4 2.3 0
v -0.3 2.2 0
v -0.3 2.4 0
v -0.3 2.5 0
v -0.2 0.2 0
v -0.2 0.3 0
v -0.2 0.4 0
v -0.2 0.5 0
v -0.2 0.6 0
v -0.2 0.7 0
v -0.2 0.8 0
v -0.2 0.9 0
v -0.1 2.8 0
v -0.1 2.9 0
v -0.1 3 0
v 0.1 2.8 0
v 0.1 2.9 0
v 0.1 3 0
v 0.2 0.2 0
v 0.2 0.3 0
v 0.2 0.4 0
v 0.2 0.5 0
v 0.2 0.6 0
v 0.2 0.7 0
v 0.2 0.8 0
v 0.2 0.9 0
v 0.3 2.2 0
v 0.3 2.4 0
v 0.3 2.5 0
v 0.4 0.2 0
v 0.4 0.3 0
v 0.4 0.4 0
v 0.4 0.5 0
v 0.4 0.6 0
v 0.4 0.7 0
v 0.4 0.8 0
v 0.4 0.9 0
v 0.4 1 0
v 0.4 1.1 0
v 0.4 1.2 0
v 0.4 1.3 0
v 0.4 1.7 0
v 0.4 2.2 0
v 0.4 2.3 0
v 0.5 2.3 0
v 0.5 2.5 0
v 0.6 0.9 0
v 0.6 1 0
v 0.6 1.1 0
v 0.6 1.7 0
v -0.2 1.7 -0.1
v -0.2 1.8 -0.1
v -0.2 1.9 -0.1
v -0.2 2.7 -0.1
v -0.2 2.8 -0.1
v 0.2 1.7 -0.1
v 0.2 1.8 -0.1
v 0.2 1.9 -0.1
v 0.2 2.7 -0.1
v 0.2 2.8 -0.1
v -0.4 0 -0.2
v -0.4 0.2 -0.2
v -0.4 0.9 -0.2
v -0.4 1.2 -0.2
v -0.4 1.3 -0.2
v -0.4 1.7 -0.2
v -0.3 1.9 -0.2
v -0.3 2.4 -0.2
v -0.3 2.5 -0.2
v -0.3 2.6 -0.2
v -0.3 2.7 -0.2
v -0.2 0 -0.2
v -0.2 0.2 -0.2
v -0.2 2.2 -0.2
v -0.2 2.3 -0.2
v -0.1 1.2 -0.2
v -0.1 1.3 -0.2
v -0.1 2 -0.2
v -0.1 2.1 -0.2
v -0.1 2.2 -0.2
v -0.1 2.3 -0.2
v 0.1 1.2 -0.2
v 0.1 1.3 -0.2
v 0.1 2 -0.2
v 0.1 2.1 -0.2
v 0.1 2.2 -0.2
v 0.1 2.3 -0.2
v 0.2 0 -0.2
v 0.2 0.2 -0.2
v 0.2 2.2 -0.2
v 0.2 2.3 -0.2
v 0.3 1.9 -0.2
v 0.3 2.4 -0.2
v 0.3 2.5 -0.2
v 0.3 2.6 -0.2
v 0.3 2.7 -0.2
v 0.4 0 -0.2
v 0.4 0.2 -0.2
v 0.4 0.9 -0.2
v 0.4 1.2 -0.2
v 0.4 1.3 -0.2
v 0.4 1.7 -0.2
v -0.4 0 0.2
v -0.2 0 0.2
v 0.2 0 0.2
v 0.4 0 0.2
v -0.4 0 -0.2
v -0.2 0 -0.2
v 0.2 0 -0.2
v 0.4 0 -0.2
v -0.4 0.9 0.4
v 0.4 0.9 0.4
v -0.4 0.9 0.2
v -0.2 0.9 0.2
v 0.2 0.9 0.2
v 0.4 0.9 0.2
v 0.6 0.9 0.2
v -0.4 0.9 0
v -0.2 0.9 0
v 0.2 0.9 0
v 0.4 0.9 0
v 0.6 0.9 0
v -0.4 0.9 -0.2
v 0.4 0.9 -0.2
v -0.3 1.9 0.4
v 0.3 1.9 0.4
v -0.3 1.9 0.3
v -0.2 1.9 0.3
v 0.2 1.9 0.3
v 0.3 1.9 0.3
v -0.2 1.9 -0.1
v 0.2 1.9 -0.1
v -0.3 1.9 -0.2
v 0.3 1.9 -0.2
v -0.4 2.2 0.1
v -0.3 2.2 0.1
v 0.3 2.2 0.1
v 0.4 2.2 0.1
v -0.4 2.2 0
v -0.3 2.2 0
v 0.3 2.2 0
v 0.4 2.2 0
v -0.5 2.3 0.1
v -0.4 2.3 0.1
v 0.4 2.3 0.1
v 0.5 2.3 0.1
v -0.5 2.3 0
v -0.4 2.3 0
v 0.4 2.3 0
v 0.5 2.3 0
v -0.4 0.2 0
v -0.2 0.2 0
v 0.2 0.2 0
v 0.4 0.2 0
v -0.4 0.2 -0.2
v -0.2 0.2 -0.2
v 0.2 0.2 -0.2
v 0.4 0.2 -0.2
v -0.4 1.7 0.4
v 0.4 1.7 0.4
v -0.2 1.7 0.3
v 0.2 1.7 0.3
v 0.4 1.7 0.2
v 0.6 1.7 0.2
v 0.4 1.7 0
v 0.6 1.7 0
v -0.2 1.7 -0.1
v 0.2 1.7 -0.1
v -0.4 1.7 -0.2
v 0.4 1.7 -0.2
v -0.5 2.5 0.1
v -0.3 2.5 0.1
v 0.3 2.5 0.1
v 0.5 2.5 0.1
v -0.5 2.5 0
v -0.3 2.5 0
v 0.3 2.5 0
v 0.5 2.5 0
v -0.3 2.7 0.4
v 0.3 2.7 0.4
v -0.2 2.7 0.3
v 0.2 2.7 0.3
v -0.2 2.7 -0.1
v 0.2 2.7 -0.1
v -0.3 2.7 -0.2
v 0.3 2.7 -0.2
v -0.2 2.8 0.3
v 0.2 2.8 0.3
v -0.1 2.8 0.2
v 0.1 2.8 0.2
v -0.1 2.8 0
v 0.1 2.8 0
v -0.2 2.8 -0.1
v 0.2 2.8 -0.1
v -0.1 3 0.2
v 0.1 3 0.2
v -0.1 3 0
v 0.1 3 0

# faces
f 3/2/1 2/2/1 1/2/1
f 4/2/1 2/2/1 3/2/1
f 7/8/1 6/8/1 5/8/1
f 8/8/1 6/8/1 7/8/1
f 9/7/1 8/7/1 7/7/1
f 10/8/1 6/8/1 8/8/1
f 10/7/1 8/7/1 9/7/1
f 11/8/1 6/8/1 10/8/1
f 12/1/1 10/1/1 9/1/1
f 13/1/1 10/1/1 12/1/1
f 14/7/1 13/7/1 12/7/1
f 15/7/1 13/7/1 14/7/1
f 16/1/1 15/1/1 14/1/1
f 17/1/1 15/1/1 16/1/1
f 18/7/1 17/7/1 16/7/1
f 19/7/1 17/7/1 18/7/1
f 20/1/1 19/1/1 18/1/1
f 21/1/1 19/1/1 20/1/1
f 22/7/1 21/7/1 20/7/1
f 23/7/1 21/7/1 22/7/1
f 25/1/1 23/1/1 22/1/1
f 26/1/1 23/1/1 25/1/1
f 28/5/1 26/5/1 25/5/1
f 28/5/1 27/5/1 26/5/1
f 28/5/1 25/5/1 24/5/1
f 29/5/1 27/5/1 28/5/1
f 30/8/1 29/8/1 28/8/1
f 31/8/1 29/8/1 30/8/1
f 32/5/1 31/5/1 30/5/1
f 33/5/1 31/5/1 32/5/1
f 36/2/1 35/2/1 34/2/1
f 37/2/1 35/2/1 36/2/1
f 41/3/1 39/3/1 38/3/1
f 41/2/1 40/2/1 39/2/1
f 42/2/1 40/2/1 41/2/1
f 43/3/1 42/3/1 41/3/1
f 43/2/1 40/2/1 42/2/1
f 44/2/1 40/2/1 43/2/1
f 45/2/1 40/2/1 44/2/1
f 46/2/1 40/2/1 45/2/1
f 47/2/1 40/2/1 46/2/1
f 48/3/1 41/3/1 38/3/1
f 48/3/1 43/3/1 41/3/1
f 48/3/1 44/3/1 43/3/1
f 49/3/1 44/3/1 48/3/1
f 50/3/1 47/3/1 46/3/1
f 51/3/1 47/3/1 50/3/1
f 52/7/1 49/7/1 48/7/1
f 52/7/1 50/7/1 49/7/1
f 52/7/1 51/7/1 50/7/1
f 53/7/1 51/7/1 52/7/1
f 54/1/1 53/1/1 52/1/1
f 55/1/1 53/1/1 54/1/1
f 58/7/1 57/7/1 56/7/1
f 59/7/1 57/7/1 58/7/1
f 60/2/1 59/2/1 58/2/1
f 61/2/1 59/2/1 60/2/1
f 64/1/1 63/1/1 62/1/1
f 65/1/1 63/1/1 64/1/1
f 68/1/1 67/1/1 66/1/1
f 69/1/1 67/1/1 68/1/1
f 70/7/1 69/7/1 68/7/1
f 71/7/1 69/7/1 70/7/1
f 74/8/1 73/8/1 72/8/1
f 75/8/1 73/8/1 74/8/1
f 76/7/1 75/7/1 74/7/1
f 77/8/1 73/8/1 75/8/1
f 77/7/1 75/7/1 76/7/1
f 78/8/1 73/8/1 77/8/1
f 79/1/1 77/1/1 76/1/1
f 80/1/1 77/1/1 79/1/1
f 81/7/1 80/7/1 79/7/1
f 82/7/1 80/7/1 81/7/1
f 83/1/1 82/1/1 81/1/1
f 84/1/1 82/1/1 83/1/1
f 85/7/1 84/7/1 83/7/1
f 86/7/1 84/7/1 85/7/1
f 87/1/1 86/1/1 85/1/1
f 88/1/1 86/1/1 87/1/1
f 89/7/1 88/7/1 87/7/1
f 90/7/1 88/7/1 89/7/1
f 91/1/1 90/1/1 89/1/1
f 92/1/1 90/1/1 91/1/1
f 93/8/2 94/8/2 95/8/2
f 95/8/2 94/8/2 96/8/2
f 95/7/2 96/7/2 97/7/2
f 96/8/2 94/8/2 98/8/2
f 97/7/2 96/7/2 98/7/2
f 98/8/2 94/8/2 99/8/2
f 97/1/2 98/1/2 100/1/2
f 100/1/2 98/1/2 101/1/2
f 100/7/2 101/7/2 102/7/2
f 102/7/2 101/7/2 103/7/2
f 102/1/2 103/1/2 104/1/2
f 104/1/2 103/1/2 105/1/2
f 104/7/2 105/7/2 106/7/2
f 106/7/2 105/7/2 107/7/2
f 106/1/2 107/1/2 108/1/2
f 108/1/2 107/1/2 109/1/2
f 108/7/2 109/7/2 110/7/2
f 110/7/2 109/7/2 111/7/2
f 110/1/2 111/1/2 112/1/2
f 112/1/2 111/1/2 113/1/2
f 114/1/2 115/1/2 116/1/2
f 116/1/2 115/1/2 117/1/2
f 116/7/2 117/7/2 118/7/2
f 118/7/2 117/7/2 119/7/2
f 120/7/2 121/7/2 122/7/2
f 122/7/2 121/7/2 123/7/2
f 122/2/2 123/2/2 124/2/2
f 124/2/2 123/2/2 125/2/2
f 126/1/2 127/1/2 128/1/2
f 128/1/2 127/1/2 129/1/2
f 130/3/2 131/3/2 133/3/2
f 131/2/2 132/2/2 133/2/2
f 133/2/2 132/2/2 134/2/2
f 133/3/2 134/3/2 135/3/2
f 134/2/2 132/2/2 135/2/2
f 135/2/2 132/2/2 136/2/2
f 136/2/2 132/2/2 137/2/2
f 137/2/2 132/2/2 138/2/2
f 138/2/2 132/2/2 139/2/2
f 130/3/2 133/3/2 140/3/2
f 133/3/2 135/3/2 140/3/2
f 135/3/2 136/3/2 140/3/2
f 140/3/2 136/3/2 141/3/2
f 138/3/2 139/3/2 142/3/2
f 142/3/2 139/3/2 143/3/2
f 140/7/2 141/7/2 144/7/2
f 141/7/2 142/7/2 144/7/2
f 142/7/2 143/7/2 144/7/2
f 144/7/2 143/7/2 145/7/2
f 144/1/2 145/1/2 146/1/2
f 146/1/2 145/1/2 147/1/2
f 148/8/2 149/8/2 150/8/2
f 150/8/2 149/8/2 151/8/2
f 150/7/2 151/7/2 152/7/2
f 151/8/2 149/8/2 153/8/2
f 152/7/2 151/7/2 153/7/2
f 153/8/2 149/8/2 154/8/2
f 152/1/2 153/1/2 155/1/2
f 155/1/2 153/1/2 156/1/2
f 155/7/2 156/7/2 157/7/2
f 157/7/2 156/7/2 158/7/2
f 157/1/2 158/1/2 159/1/2
f 159/1/2 158/1/2 160/1/2
f 159/7/2 160/7/2 161/7/2
f 161/7/2 160/7/2 162/7/2
f 161/1/2 162/1/2 163/1/2
f 163/1/2 162/1/2 164/1/2
f 163/7/2 164/7/2 165/7/2
f 165/7/2 164/7/2 166/7/2
f 165/1/2 166/1/2 168/1/2
f 168/1/2 166/1/2 169/1/2
f 167/5/2 168/5/2 171/5/2
f 169/5/2 170/5/2 172/5/2
f 167/5/2 171/5/2 173/5/2
f 172/5/2 170/5/2 174/5/2
f 167/5/2 173/5/2 175/5/2
f 175/5/2 173/5/2 176/5/2
f 174/5/2 170/5/2 177/5/2
f 177/5/2 170/5/2 178/5/2
f 175/8/2 176/8/2 179/8/2
f 179/8/2 176/8/2 180/8/2
f 177/8/2 178/8/2 181/8/2
f 181/8/2 178/8/2 182/8/2
f 179/5/2 180/5/2 183/5/2
f 183/5/2 180/5/2 184/5/2
f 181/5/2 182/5/2 185/5/2
f 185/5/2 182/5/2 186/5/2
f 187/2/2 188/2/2 189/2/2
f 189/2/2 188/2/2 190/2/2
f 191/2/2 192/2/2 193/2/2
f 193/2/2 192/2/2 194/2/2
f 195/2/2 196/2/2 197/2/2
f 197/2/2 196/2/2 198/2/2
f 197/7/2 198/7/2 199/7/2
f 199/7/2 198/7/2 200/7/2
f 199/5/2 200/5/2 201/5/2
f 201/5/2 200/5/2 202/5/2
f 211/3/3 208/3/3 207/3/3
f 212/7/3 209/7/3 208/7/3
f 212/3/3 208/3/3 211/3/3
f 213/1/3 210/1/3 209/1/3
f 213/7/3 209/7/3 212/7/3
f 214/1/3 210/1/3 213/1/3
f 215/5/3 204/5/3 203/5/3
f 216/8/3 205/8/3 204/8/3
f 216/5/3 204/5/3 215/5/3
f 217/5/3 206/5/3 205/5/3
f 217/8/3 205/8/3 216/8/3
f 218/5/3 206/5/3 217/5/3
f 224/7/3 220/7/3 219/7/3
f 225/2/3 221/2/3 220/2/3
f 225/7/3 220/7/3 224/7/3
f 226/2/3 221/2/3 225/2/3
f 227/1/3 223/1/3 222/1/3
f 228/1/3 223/1/3 227/1/3
f 239/8/3 230/8/3 229/8/3
f 240/7/3 231/7/3 230/7/3
f 240/8/3 230/8/3 239/8/3
f 241/1/3 232/1/3 231/1/3
f 241/7/3 231/7/3 240/7/3
f 242/7/3 233/7/3 232/7/3
f 242/1/3 232/1/3 241/1/3
f 243/1/3 234/1/3 233/1/3
f 243/7/3 233/7/3 242/7/3
f 244/7/3 235/7/3 234/7/3
f 244/1/3 234/1/3 243/1/3
f 245/1/3 236/1/3 235/1/3
f 245/7/3 235/7/3 244/7/3
f 246/7/3 237/7/3 236/7/3
f 246/1/3 236/1/3 245/1/3
f 247/1/3 238/1/3 237/1/3
f 247/7/3 237/7/3 246/7/3
f 248/1/3 238/1/3 247/1/3
f 252/1/3 250/1/3 249/1/3
f 253/7/3 251/7/3 250/7/3
f 253/1/3 250/1/3 252/1/3
f 254/7/3 251/7/3 253/7/3
f 265/8/3 256/8/3 255/8/3
f 266/7/3 257/7/3 256/7/3
f 266/8/3 256/8/3 265/8/3
f 267/1/3 258/1/3 257/1/3
f 267/7/3 257/7/3 266/7/3
f 268/7/3 259/7/3 258/7/3
f 268/1/3 258/1/3 267/1/3
f 269/1/3 260/1/3 259/1/3
f 269/7/3 259/7/3 268/7/3
f 270/7/3 261/7/3 260/7/3
f 270/1/3 260/1/3 269/1/3
f 271/1/3 262/1/3 261/1/3
f 271/7/3 261/7/3 270/7/3
f 272/7/3 263/7/3 262/7/3
f 272/1/3 262/1/3 271/1/3
f 273/1/3 264/1/3 263/1/3
f 273/7/3 263/7/3 272/7/3
f 274/1/3 264/1/3 273/1/3
f 280/2/3 275/2/3 274/2/3
f 281/7/3 276/7/3 275/7/3
f 281/2/3 275/2/3 280/2/3
f 282/5/3 279/5/3 278/5/3
f 282/7/3 276/7/3 281/7/3
f 282/5/3 278/5/3 277/5/3
f 282/5/3 277/5/3 276/5/3
f 283/5/3 279/5/3 282/5/3
f 287/2/3 285/2/3 284/2/3
f 288/2/3 287/2/3 286/2/3
f 289/2/3 285/2/3 287/2/3
f 289/2/3 287/2/3 288/2/3
f 292/2/3 291/2/3 290/2/3
f 293/2/3 291/2/3 292/2/3
f 294/2/3 291/2/3 293/2/3
f 295/2/3 291/2/3 294/2/3
f 296/2/4 297/2/4 307/2/4
f 306/2/4 307/2/4 308/2/4
f 307/2/4 297/2/4 309/2/4
f 308/2/4 307/2/4 309/2/4
f 309/2/4 297/2/4 310/2/4
f 298/1/4 299/1/4 311/1/4
f 299/7/4 300/7/4 312/7/4
f 311/1/4 299/1/4 312/1/4
f 300/1/4 301/1/4 313/1/4
f 312/7/4 300/7/4 313/7/4
f 301/7/4 302/7/4 314/7/4
f 313/1/4 301/1/4 314/1/4
f 302/1/4 303/1/4 315/1/4
f 314/7/4 302/7/4 315/7/4
f 303/7/4 304/7/4 316/7/4
f 315/1/4 303/1/4 316/1/4
f 304/1/4 305/1/4 317/1/4
f 316/7/4 304/7/4 317/7/4
f 317/1/4 305/1/4 318/1/4
f 319/1/4 320/1/4 322/1/4
f 320/7/4 321/7/4 323/7/4
f 322/1/4 320/1/4 323/1/4
f 323/7/4 321/7/4 324/7/4
f 325/1/4 326/1/4 336/1/4
f 326/7/4 327/7/4 337/7/4
f 336/1/4 326/1/4 337/1/4
f 327/1/4 328/1/4 338/1/4
f 337/7/4 327/7/4 338/7/4
f 328/7/4 329/7/4 339/7/4
f 338/1/4 328/1/4 339/1/4
f 329/1/4 330/1/4 340/1/4
f 339/7/4 329/7/4 340/7/4
f 330/7/4 331/7/4 341/7/4
f 340/1/4 330/1/4 341/1/4
f 331/1/4 332/1/4 342/1/4
f 341/7/4 331/7/4 342/7/4
f 342/1/4 332/1/4 343/1/4
f 334/2/4 335/2/4 349/2/4
f 333/2/4 334/2/4 349/2/4
f 349/2/4 335/2/4 350/2/4
f 350/2/4 335/2/4 351/2/4
f 351/2/4 335/2/4 352/2/4
f 343/2/4 344/2/4 353/2/4
f 344/7/4 345/7/4 354/7/4
f 353/2/4 344/2/4 354/2/4
f 347/5/4 348/5/4 355/5/4
f 354/7/4 345/7/4 355/7/4
f 345/5/4 346/5/4 355/5/4
f 346/5/4 347/5/4 355/5/4
f 355/5/4 348/5/4 356/5/4
f 357/7/4 358/7/4 362/7/4
f 358/2/4 359/2/4 363/2/4
f 362/7/4 358/7/4 363/7/4
f 363/2/4 359/2/4 364/2/4
f 360/1/4 361/1/4 365/1/4
f 365/1/4 361/1/4 366/1/4
f 367/8/4 368/8/4 378/8/4
f 378/8/4 368/8/4 379/8/4
f 373/2/4 374/2/4 380/2/4
f 380/2/4 374/2/4 381/2/4
f 369/5/4 370/5/4 382/5/4
f 370/8/4 371/8/4 382/8/4
f 371/5/4 372/5/4 383/5/4
f 382/8/4 371/8/4 383/8/4
f 373/2/4 380/2/4 384/2/4
f 384/2/4 380/2/4 385/2/4
f 380/6/4 381/6/4 386/6/4
f 385/2/4 380/2/4 386/2/4
f 381/2/4 374/2/4 387/2/4
f 386/6/4 381/6/4 387/6/4
f 369/5/4 382/5/4 388/5/4
f 382/4/4 383/4/4 388/4/4
f 383/5/4 372/5/4 389/5/4
f 388/4/4 383/4/4 389/4/4
f 384/1/4 385/1/4 390/1/4
f 373/2/4 384/2/4 390/2/4
f 385/2/4 386/2/4 391/2/4
f 390/1/4 385/1/4 391/1/4
f 386/2/4 387/2/4 391/2/4
f 391/2/4 387/2/4 392/2/4
f 387/2/4 374/2/4 393/2/4
f 392/2/4 387/2/4 393/2/4
f 391/2/4 392/2/4 396/2/4
f 390/2/4 391/2/4 396/2/4
f 392/6/4 393/6/4 396/6/4
f 393/2/4 374/2/4 397/2/4
f 396/6/4 393/6/4 397/6/4
f 373/2/4 390/2/4 398/2/4
f 390/2/4 396/2/4 398/2/4
f 396/2/4 397/2/4 398/2/4
f 397/2/4 374/2/4 399/2/4
f 398/2/4 397/2/4 399/2/4
f 374/3/4 375/3/4 399/3/4
f 375/7/4 376/7/4 400/7/4
f 399/3/4 375/3/4 400/3/4
f 376/1/4 377/1/4 401/1/4
f 400/7/4 376/7/4 401/7/4
f 401/1/4 377/1/4 402/1/4
f 394/8/4 395/8/4 403/8/4
f 403/8/4 395/8/4 404/8/4
f 369/5/4 388/5/4 405/5/4
f 388/8/4 389/8/4 406/8/4
f 405/5/4 388/5/4 406/5/4
f 389/5/4 372/5/4 407/5/4
f 406/8/4 389/8/4 407/8/4
f 407/5/4 372/5/4 408/5/4
f 413/8/5 410/8/5 409/8/5
f 414/8/5 410/8/5 413/8/5
f 415/8/5 412/8/5 411/8/5
f 416/8/5 412/8/5 415/8/5
f 419/5/5 418/5/5 417/5/5
f 420/5/5 418/5/5 419/5/5
f 421/5/5 418/5/5 420/5/5
f 422/5/5 418/5/5 421/5/5
f 425/5/5 421/5/5 420/5/5
f 426/5/5 421/5/5 425/5/5
f 427/2/5 423/2/5 422/2/5
f 428/2/5 423/2/5 427/2/5
f 429/5/5 426/5/5 425/5/5
f 429/5/5 425/5/5 424/5/5
f 429/5/5 427/5/5 426/5/5
f 430/5/5 427/5/5 429/5/5
f 433/3/5 432/3/5 431/3/5
f 434/3/5 432/3/5 433/3/5
f 435/3/5 432/3/5 434/3/5
f 436/3/5 432/3/5 435/3/5
f 437/2/5 434/2/5 433/2/5
f 438/2/5 436/2/5 435/2/5
f 439/2/5 437/2/5 433/2/5
f 439/2/5 438/2/5 437/2/5
f 440/2/5 436/2/5 438/2/5
f 440/2/5 438/2/5 439/2/5
f 445/2/5 442/2/5 441/2/5
f 446/2/5 442/2/5 445/2/5
f 447/2/5 444/2/5 443/2/5
f 448/2/5 444/2/5 447/2/5
f 453/2/5 450/2/5 449/2/5
f 454/2/5 450/2/5 453/2/5
f 455/2/5 452/2/5 451/2/5
f 456/2/5 452/2/5 455/2/5
f 457/8/6 458/8/6 461/8/6
f 461/8/6 458/8/6 462/8/6
f 459/8/6 460/8/6 463/8/6
f 463/8/6 460/8/6 464/8/6
f 465/5/6 466/5/6 467/5/6
f 467/5/6 466/5/6 468/5/6
f 468/5/6 466/5/6 469/5/6
f 468/5/6 469/5/6 471/5/6
f 469/5/6 470/5/6 471/5/6
f 471/5/6 470/5/6 472/5/6
f 465/5/6 467/5/6 473/5/6
f 468/5/6 471/5/6 474/5/6
f 465/5/6 473/5/6 475/5/6
f 473/5/6 474/5/6 475/5/6
f 474/5/6 471/5/6 476/5/6
f 475/5/6 474/5/6 476/5/6
f 477/2/6 478/2/6 481/2/6
f 481/2/6 478/2/6 482/2/6
f 479/2/6 480/2/6 483/2/6
f 483/2/6 480/2/6 484/2/6
f 485/1/6 486/1/6 487/1/6
f 487/1/6 486/1/6 488/1/6
f 485/1/6 487/1/6 489/1/6
f 488/1/6 486/1/6 490/1/6
f 485/1/6 489/1/6 491/1/6
f 489/1/6 490/1/6 491/1/6
f 490/1/6 486/1/6 492/1/6
f 491/1/6 490/1/6 492/1/6
f 493/1/6 494/1/6 495/1/6
f 495/1/6 494/1/6 496/1/6
f 493/1/6 495/1/6 497/1/6
f 496/1/6 494/1/6 498/1/6
f 493/1/6 497/1/6 499/1/6
f 497/1/6 498/1/6 499/1/6
f 498/1/6 494/1/6 500/1/6
f 499/1/6 498/1/6 500/1/6
f 501/7/6 502/7/6 503/7/6
f 503/7/6 502/7/6 504/7/6
