# MagicaVoxel @ Ephtracy

# group
o 

# material
mtllib conveyor_3.mtl
usemtl palette

# normals
vn -1 0 0
vn 1 0 0
vn 0 0 1
vn 0 0 -1
vn 0 -1 0
vn 0 1 0

# texcoords
vt 0.419922 0.5
vt 0.431641 0.5
vt 0.572266 0.5
vt 0.591797 0.5
vt 0.650391 0.5
vt 0.955078 0.5

# verts
v -0.8 0 0.7
v -0.8 0 -0.3
v -0.8 0 -0.6
v -0.8 0 -0.7
v -0.8 0.1 0.8
v -0.8 0.1 0.7
v -0.8 0.1 -0.7
v -0.8 0.1 -0.8
v -0.8 0.2 0.6
v -0.8 0.2 -0.3
v -0.8 0.2 -0.6
v -0.8 0.4 0.8
v -0.8 0.4 0.7
v -0.8 0.5 0.7
v -0.8 0.5 0.6
v -0.8 0.5 0.4
v -0.8 0.5 -0.1
v -0.8 0.5 -0.2
v -0.8 0.5 -0.6
v -0.8 0.6 0.8
v -0.8 0.6 0.7
v -0.8 0.6 0.4
v -0.8 0.6 -0.7
v -0.8 0.6 -0.8
v -0.8 0.7 0.7
v -0.8 0.7 -0.1
v -0.8 0.7 -0.2
v -0.8 0.7 -0.7
v -0.7 0.2 0.6
v -0.7 0.2 -0.3
v -0.7 0.2 -0.6
v -0.7 0.3 0.2
v -0.7 0.3 0.1
v -0.7 0.3 -0.4
v -0.7 0.3 -0.5
v -0.7 0.4 0.2
v -0.7 0.4 0.1
v -0.7 0.4 -0.4
v -0.7 0.4 -0.5
v -0.7 0.5 0.6
v -0.7 0.5 0.4
v -0.7 0.5 -0.1
v -0.7 0.5 -0.2
v -0.7 0.5 -0.6
v 0.6 0 0.7
v 0.6 0 -0.7
v 0.6 0.1 0.8
v 0.6 0.1 0.7
v 0.6 0.1 -0.7
v 0.6 0.1 -0.8
v 0.6 0.2 0.8
v 0.6 0.2 0.7
v 0.6 0.2 -0.7
v 0.6 0.2 -0.8
v 0.6 0.5 0.8
v 0.6 0.5 0.7
v 0.6 0.5 -0.7
v 0.6 0.5 -0.8
v 0.6 0.6 0.8
v 0.6 0.6 0.7
v 0.6 0.6 0.3
v 0.6 0.6 0.2
v 0.6 0.6 -0.7
v 0.6 0.6 -0.8
v 0.6 0.7 0.7
v 0.6 0.7 0.3
v 0.6 0.7 0.2
v 0.6 0.7 -0.7
v -0.6 0 0.7
v -0.6 0 -0.7
v -0.6 0.1 0.8
v -0.6 0.1 0.7
v -0.6 0.1 -0.7
v -0.6 0.1 -0.8
v -0.6 0.2 0.8
v -0.6 0.2 0.7
v -0.6 0.2 -0.7
v -0.6 0.2 -0.8
v -0.6 0.5 0.8
v -0.6 0.5 0.7
v -0.6 0.5 -0.7
v -0.6 0.5 -0.8
v -0.6 0.6 0.8
v -0.6 0.6 0.7
v -0.6 0.6 -0.1
v -0.6 0.6 -0.3
v -0.6 0.6 -0.7
v -0.6 0.6 -0.8
v -0.6 0.7 0.7
v -0.6 0.7 -0.1
v -0.6 0.7 -0.3
v -0.6 0.7 -0.7
v 0.7 0.2 0.6
v 0.7 0.2 -0.6
v 0.7 0.3 0.2
v 0.7 0.3 0.1
v 0.7 0.3 -0.4
v 0.7 0.3 -0.5
v 0.7 0.4 0.2
v 0.7 0.4 0.1
v 0.7 0.4 -0.4
v 0.7 0.4 -0.5
v 0.7 0.5 0.6
v 0.7 0.5 0.4
v 0.7 0.5 -0.5
v 0.7 0.5 -0.6
v 0.8 0 0.7
v 0.8 0 0
v 0.8 0 -0.5
v 0.8 0 -0.7
v 0.8 0.1 0.8
v 0.8 0.1 0.7
v 0.8 0.1 0
v 0.8 0.1 -0.5
v 0.8 0.1 -0.7
v 0.8 0.1 -0.8
v 0.8 0.2 0.6
v 0.8 0.2 -0.6
v 0.8 0.5 0.6
v 0.8 0.5 0.4
v 0.8 0.5 -0.5
v 0.8 0.5 -0.6
v 0.8 0.6 0.8
v 0.8 0.6 0.7
v 0.8 0.6 0.4
v 0.8 0.6 0.2
v 0.8 0.6 -0.3
v 0.8 0.6 -0.5
v 0.8 0.6 -0.7
v 0.8 0.6 -0.8
v 0.8 0.7 0.7
v 0.8 0.7 0.6
v 0.8 0.7 0.2
v 0.8 0.7 -0.3
v 0.8 0.7 -0.6
v 0.8 0.7 -0.7
v -0.8 0.1 0.8
v -0.8 0.4 0.8
v -0.8 0.6 0.8
v -0.7 0.4 0.8
v -0.7 0.5 0.8
v -0.6 0.1 0.8
v -0.6 0.2 0.8
v -0.6 0.5 0.8
v -0.6 0.6 0.8
v -0.3 0.3 0.8
v -0.3 0.4 0.8
v -0.3 0.5 0.8
v -0.2 0.3 0.8
v -0.2 0.4 0.8
v -0.2 0.5 0.8
v -0.1 0.4 0.8
v -0.1 0.5 0.8
v 0.1 0.4 0.8
v 0.1 0.5 0.8
v 0.2 0.3 0.8
v 0.2 0.4 0.8
v 0.2 0.5 0.8
v 0.3 0.3 0.8
v 0.3 0.4 0.8
v 0.3 0.5 0.8
v 0.6 0.1 0.8
v 0.6 0.2 0.8
v 0.6 0.5 0.8
v 0.6 0.6 0.8
v 0.8 0.1 0.8
v 0.8 0.6 0.8
v -0.8 0 0.7
v -0.8 0.1 0.7
v -0.8 0.6 0.7
v -0.8 0.7 0.7
v -0.6 0 0.7
v -0.6 0.1 0.7
v -0.6 0.2 0.7
v -0.6 0.5 0.7
v -0.6 0.6 0.7
v -0.6 0.7 0.7
v -0.3 0.5 0.7
v -0.2 0.5 0.7
v -0.2 0.6 0.7
v -0.1 0.5 0.7
v -0.1 0.6 0.7
v 0.1 0.5 0.7
v 0.1 0.6 0.7
v 0.2 0.5 0.7
v 0.2 0.6 0.7
v 0.3 0.5 0.7
v 0.6 0 0.7
v 0.6 0.1 0.7
v 0.6 0.2 0.7
v 0.6 0.5 0.7
v 0.6 0.6 0.7
v 0.6 0.7 0.7
v 0.8 0 0.7
v 0.8 0.1 0.7
v 0.8 0.6 0.7
v 0.8 0.7 0.7
v -0.8 0.2 -0.6
v -0.8 0.5 -0.6
v -0.7 0.2 -0.6
v -0.7 0.5 -0.6
v 0.7 0.2 -0.6
v 0.7 0.5 -0.6
v 0.8 0.2 -0.6
v 0.8 0.5 -0.6
v -0.8 0.2 0.6
v -0.8 0.5 0.6
v -0.7 0.2 0.6
v -0.7 0.5 0.6
v 0.7 0.2 0.6
v 0.7 0.5 0.6
v 0.8 0.2 0.6
v 0.8 0.5 0.6
v -0.8 0 -0.7
v -0.8 0.1 -0.7
v -0.8 0.6 -0.7
v -0.8 0.7 -0.7
v -0.6 0 -0.7
v -0.6 0.1 -0.7
v -0.6 0.2 -0.7
v -0.6 0.5 -0.7
v -0.6 0.6 -0.7
v -0.6 0.7 -0.7
v -0.3 0.1 -0.7
v -0.3 0.2 -0.7
v -0.2 0.1 -0.7
v -0.2 0.2 -0.7
v -0.1 0.1 -0.7
v -0.1 0.2 -0.7
v -0.1 0.5 -0.7
v -0.1 0.6 -0.7
v 0.1 0.1 -0.7
v 0.1 0.2 -0.7
v 0.1 0.5 -0.7
v 0.1 0.6 -0.7
v 0.2 0.1 -0.7
v 0.2 0.2 -0.7
v 0.3 0.1 -0.7
v 0.3 0.2 -0.7
v 0.6 0 -0.7
v 0.6 0.1 -0.7
v 0.6 0.2 -0.7
v 0.6 0.5 -0.7
v 0.6 0.6 -0.7
v 0.6 0.7 -0.7
v 0.8 0 -0.7
v 0.8 0.1 -0.7
v 0.8 0.6 -0.7
v 0.8 0.7 -0.7
v -0.8 0.1 -0.8
v -0.8 0.6 -0.8
v -0.6 0.1 -0.8
v -0.6 0.2 -0.8
v -0.6 0.5 -0.8
v -0.6 0.6 -0.8
v -0.3 0.2 -0.8
v -0.3 0.3 -0.8
v -0.2 0.2 -0.8
v -0.2 0.3 -0.8
v 0.2 0.2 -0.8
v 0.2 0.3 -0.8
v 0.3 0.2 -0.8
v 0.3 0.3 -0.8
v 0.6 0.1 -0.8
v 0.6 0.2 -0.8
v 0.6 0.5 -0.8
v 0.6 0.6 -0.8
v 0.8 0.1 -0.8
v 0.8 0.6 -0.8
v -0.8 0 0.7
v -0.6 0 0.7
v 0.6 0 0.7
v 0.8 0 0.7
v 0.7 0 0
v 0.8 0 0
v -0.8 0 -0.3
v -0.7 0 -0.3
v 0.7 0 -0.5
v 0.8 0 -0.5
v -0.8 0 -0.6
v -0.7 0 -0.6
v -0.8 0 -0.7
v -0.6 0 -0.7
v 0.6 0 -0.7
v 0.8 0 -0.7
v -0.8 0.1 0.8
v -0.6 0.1 0.8
v 0.6 0.1 0.8
v 0.8 0.1 0.8
v -0.8 0.1 0.7
v -0.6 0.1 0.7
v 0.6 0.1 0.7
v 0.8 0.1 0.7
v -0.1 0.1 0.6
v 0.1 0.1 0.6
v -0.2 0.1 0.5
v -0.1 0.1 0.5
v 0.1 0.1 0.5
v 0.2 0.1 0.5
v -0.3 0.1 0.4
v -0.2 0.1 0.4
v -0.1 0.1 0.4
v 0.1 0.1 0.4
v 0.2 0.1 0.4
v 0.3 0.1 0.4
v -0.3 0.1 0.3
v -0.2 0.1 0.3
v -0.1 0.1 0.3
v 0.1 0.1 0.3
v 0.2 0.1 0.3
v 0.3 0.1 0.3
v -0.3 0.1 0.2
v -0.2 0.1 0.2
v 0.2 0.1 0.2
v 0.3 0.1 0.2
v -0.1 0.1 -0.4
v 0.1 0.1 -0.4
v -0.2 0.1 -0.5
v -0.1 0.1 -0.5
v 0.1 0.1 -0.5
v 0.2 0.1 -0.5
v -0.3 0.1 -0.6
v -0.2 0.1 -0.6
v -0.1 0.1 -0.6
v 0.1 0.1 -0.6
v 0.2 0.1 -0.6
v 0.3 0.1 -0.6
v -0.8 0.1 -0.7
v -0.6 0.1 -0.7
v -0.3 0.1 -0.7
v -0.2 0.1 -0.7
v -0.1 0.1 -0.7
v 0.1 0.1 -0.7
v 0.2 0.1 -0.7
v 0.3 0.1 -0.7
v 0.6 0.1 -0.7
v 0.8 0.1 -0.7
v -0.8 0.1 -0.8
v -0.6 0.1 -0.8
v 0.6 0.1 -0.8
v 0.8 0.1 -0.8
v -0.6 0.2 0.8
v 0.6 0.2 0.8
v -0.6 0.2 0.7
v 0.6 0.2 0.7
v -0.6 0.2 -0.7
v -0.3 0.2 -0.7
v -0.2 0.2 -0.7
v -0.1 0.2 -0.7
v 0.1 0.2 -0.7
v 0.2 0.2 -0.7
v 0.3 0.2 -0.7
v 0.6 0.2 -0.7
v -0.6 0.2 -0.8
v -0.3 0.2 -0.8
v -0.2 0.2 -0.8
v 0.2 0.2 -0.8
v 0.3 0.2 -0.8
v 0.6 0.2 -0.8
v -0.8 0.5 0.6
v -0.7 0.5 0.6
v 0.7 0.5 0.6
v 0.8 0.5 0.6
v -0.8 0.5 0.4
v -0.7 0.5 0.4
v 0.7 0.5 0.4
v 0.8 0.5 0.4
v -0.8 0.5 -0.1
v -0.7 0.5 -0.1
v -0.8 0.5 -0.2
v -0.7 0.5 -0.2
v 0.7 0.5 -0.5
v 0.8 0.5 -0.5
v -0.8 0.5 -0.6
v -0.7 0.5 -0.6
v 0.7 0.5 -0.6
v 0.8 0.5 -0.6
v -0.8 0.2 0.6
v -0.7 0.2 0.6
v 0.7 0.2 0.6
v 0.8 0.2 0.6
v -0.8 0.2 -0.3
v -0.7 0.2 -0.3
v -0.8 0.2 -0.6
v -0.7 0.2 -0.6
v 0.7 0.2 -0.6
v 0.8 0.2 -0.6
v -0.6 0.5 0.8
v -0.3 0.5 0.8
v -0.2 0.5 0.8
v -0.1 0.5 0.8
v 0.1 0.5 0.8
v 0.2 0.5 0.8
v 0.3 0.5 0.8
v 0.6 0.5 0.8
v -0.6 0.5 0.7
v -0.3 0.5 0.7
v -0.2 0.5 0.7
v -0.1 0.5 0.7
v 0.1 0.5 0.7
v 0.2 0.5 0.7
v 0.3 0.5 0.7
v 0.6 0.5 0.7
v -0.6 0.5 -0.7
v -0.1 0.5 -0.7
v 0.1 0.5 -0.7
v 0.6 0.5 -0.7
v -0.6 0.5 -0.8
v 0.6 0.5 -0.8
v -0.8 0.6 0.8
v -0.6 0.6 0.8
v 0.6 0.6 0.8
v 0.8 0.6 0.8
v -0.8 0.6 0.7
v -0.6 0.6 0.7
v -0.2 0.6 0.7
v -0.1 0.6 0.7
v 0.1 0.6 0.7
v 0.2 0.6 0.7
v 0.6 0.6 0.7
v 0.8 0.6 0.7
v -0.2 0.6 0.6
v -0.1 0.6 0.6
v 0.1 0.6 0.6
v 0.2 0.6 0.6
v -0.1 0.6 0.5
v 0.1 0.6 0.5
v -0.3 0.6 0.3
v -0.2 0.6 0.3
v 0.2 0.6 0.3
v 0.3 0.6 0.3
v 0.6 0.6 0.3
v -0.3 0.6 0.2
v -0.2 0.6 0.2
v -0.1 0.6 0.2
v 0.1 0.6 0.2
v 0.2 0.6 0.2
v 0.3 0.6 0.2
v 0.6 0.6 0.2
v -0.3 0.6 0.1
v -0.2 0.6 0.1
v -0.1 0.6 0.1
v 0.1 0.6 0.1
v 0.2 0.6 0.1
v 0.3 0.6 0.1
v -0.2 0.6 0
v -0.1 0.6 0
v 0.1 0.6 0
v 0.2 0.6 0
v -0.6 0.6 -0.1
v -0.1 0.6 -0.1
v 0.1 0.6 -0.1
v -0.6 0.6 -0.3
v -0.3 0.6 -0.3
v -0.2 0.6 -0.3
v 0.2 0.6 -0.3
v 0.3 0.6 -0.3
v -0.3 0.6 -0.4
v -0.2 0.6 -0.4
v -0.1 0.6 -0.4
v 0.1 0.6 -0.4
v 0.2 0.6 -0.4
v 0.3 0.6 -0.4
v -0.3 0.6 -0.5
v -0.2 0.6 -0.5
v -0.1 0.6 -0.5
v 0.1 0.6 -0.5
v 0.2 0.6 -0.5
v 0.3 0.6 -0.5
v -0.2 0.6 -0.6
v -0.1 0.6 -0.6
v 0.1 0.6 -0.6
v 0.2 0.6 -0.6
v -0.8 0.6 -0.7
v -0.6 0.6 -0.7
v -0.1 0.6 -0.7
v 0.1 0.6 -0.7
v 0.6 0.6 -0.7
v 0.8 0.6 -0.7
v -0.8 0.6 -0.8
v -0.6 0.6 -0.8
v 0.6 0.6 -0.8
v 0.8 0.6 -0.8
v -0.8 0.7 0.7
v -0.6 0.7 0.7
v 0.6 0.7 0.7
v 0.8 0.7 0.7
v 0.7 0.7 0.6
v 0.8 0.7 0.6
v 0.6 0.7 0.3
v 0.7 0.7 0.3
v 0.6 0.7 0.2
v 0.8 0.7 0.2
v -0.8 0.7 -0.1
v -0.6 0.7 -0.1
v -0.8 0.7 -0.2
v -0.7 0.7 -0.2
v -0.7 0.7 -0.3
v -0.6 0.7 -0.3
v 0.7 0.7 -0.3
v 0.8 0.7 -0.3
v 0.7 0.7 -0.6
v 0.8 0.7 -0.6
v -0.8 0.7 -0.7
v -0.6 0.7 -0.7
v 0.6 0.7 -0.7
v 0.8 0.7 -0.7

# faces
f 6/5/1 2/5/1 1/5/1
f 7/5/1 4/5/1 3/5/1
f 9/5/1 6/5/1 5/5/1
f 9/5/1 2/5/1 6/5/1
f 10/6/1 3/6/1 2/6/1
f 10/5/1 2/5/1 9/5/1
f 11/5/1 8/5/1 7/5/1
f 11/6/1 3/6/1 10/6/1
f 11/5/1 7/5/1 3/5/1
f 12/5/1 9/5/1 5/5/1
f 13/5/1 9/5/1 12/5/1
f 14/6/1 13/6/1 12/6/1
f 14/5/1 9/5/1 13/5/1
f 15/5/1 9/5/1 14/5/1
f 19/5/1 8/5/1 11/5/1
f 20/6/1 14/6/1 12/6/1
f 20/6/1 15/6/1 14/6/1
f 20/6/1 16/6/1 15/6/1
f 21/6/1 16/6/1 20/6/1
f 22/5/1 17/5/1 16/5/1
f 22/6/1 16/6/1 21/6/1
f 23/5/1 19/5/1 18/5/1
f 23/5/1 8/5/1 19/5/1
f 24/5/1 8/5/1 23/5/1
f 25/5/1 22/5/1 21/5/1
f 26/6/1 18/6/1 17/6/1
f 26/5/1 22/5/1 25/5/1
f 26/5/1 17/5/1 22/5/1
f 27/5/1 23/5/1 18/5/1
f 27/6/1 18/6/1 26/6/1
f 28/5/1 23/5/1 27/5/1
f 32/4/1 30/4/1 29/4/1
f 32/4/1 31/4/1 30/4/1
f 33/4/1 31/4/1 32/4/1
f 34/4/1 31/4/1 33/4/1
f 35/4/1 31/4/1 34/4/1
f 36/4/1 32/4/1 29/4/1
f 36/3/1 33/3/1 32/3/1
f 37/4/1 34/4/1 33/4/1
f 37/3/1 33/3/1 36/3/1
f 38/3/1 35/3/1 34/3/1
f 38/4/1 34/4/1 37/4/1
f 39/4/1 31/4/1 35/4/1
f 39/3/1 35/3/1 38/3/1
f 40/4/1 38/4/1 37/4/1
f 40/4/1 37/4/1 36/4/1
f 40/4/1 39/4/1 38/4/1
f 40/4/1 36/4/1 29/4/1
f 41/4/1 39/4/1 40/4/1
f 42/4/1 39/4/1 41/4/1
f 43/4/1 39/4/1 42/4/1
f 44/4/1 31/4/1 39/4/1
f 44/4/1 39/4/1 43/4/1
f 48/5/1 46/5/1 45/5/1
f 49/5/1 46/5/1 48/5/1
f 51/5/1 48/5/1 47/5/1
f 52/5/1 48/5/1 51/5/1
f 53/5/1 50/5/1 49/5/1
f 54/5/1 50/5/1 53/5/1
f 59/5/1 56/5/1 55/5/1
f 60/5/1 56/5/1 59/5/1
f 63/5/1 58/5/1 57/5/1
f 64/5/1 58/5/1 63/5/1
f 65/5/1 61/5/1 60/5/1
f 66/6/1 62/6/1 61/6/1
f 66/5/1 61/5/1 65/5/1
f 67/5/1 63/5/1 62/5/1
f 67/6/1 62/6/1 66/6/1
f 68/5/1 63/5/1 67/5/1
f 69/5/2 70/5/2 72/5/2
f 72/5/2 70/5/2 73/5/2
f 71/5/2 72/5/2 75/5/2
f 75/5/2 72/5/2 76/5/2
f 73/5/2 74/5/2 77/5/2
f 77/5/2 74/5/2 78/5/2
f 79/6/2 80/6/2 83/6/2
f 83/6/2 80/6/2 84/6/2
f 81/5/2 82/5/2 87/5/2
f 87/5/2 82/5/2 88/5/2
f 84/5/2 85/5/2 89/5/2
f 85/6/2 86/6/2 90/6/2
f 89/5/2 85/5/2 90/5/2
f 86/5/2 87/5/2 91/5/2
f 90/6/2 86/6/2 91/6/2
f 91/5/2 87/5/2 92/5/2
f 93/4/2 94/4/2 95/4/2
f 95/4/2 94/4/2 96/4/2
f 96/4/2 94/4/2 97/4/2
f 97/4/2 94/4/2 98/4/2
f 93/4/2 95/4/2 99/4/2
f 95/3/2 96/3/2 99/3/2
f 96/4/2 97/4/2 100/4/2
f 99/3/2 96/3/2 100/3/2
f 97/3/2 98/3/2 101/3/2
f 100/4/2 97/4/2 101/4/2
f 98/4/2 94/4/2 102/4/2
f 101/3/2 98/3/2 102/3/2
f 100/4/2 101/4/2 103/4/2
f 99/4/2 100/4/2 103/4/2
f 101/4/2 102/4/2 103/4/2
f 93/4/2 99/4/2 103/4/2
f 103/4/2 102/4/2 104/4/2
f 102/4/2 94/4/2 105/4/2
f 104/4/2 102/4/2 105/4/2
f 105/4/2 94/4/2 106/4/2
f 107/5/2 108/5/2 112/5/2
f 108/6/2 109/6/2 113/6/2
f 112/5/2 108/5/2 113/5/2
f 109/5/2 110/5/2 114/5/2
f 113/6/2 109/6/2 114/6/2
f 114/5/2 110/5/2 115/5/2
f 112/5/2 113/5/2 117/5/2
f 115/5/2 116/5/2 117/5/2
f 114/5/2 115/5/2 117/5/2
f 113/5/2 114/5/2 117/5/2
f 111/5/2 112/5/2 117/5/2
f 117/5/2 116/5/2 118/5/2
f 111/5/2 117/5/2 119/5/2
f 118/5/2 116/5/2 122/5/2
f 111/5/2 119/5/2 123/5/2
f 123/5/2 119/5/2 124/5/2
f 120/5/2 121/5/2 125/5/2
f 119/6/2 120/6/2 125/6/2
f 125/5/2 121/5/2 126/5/2
f 126/5/2 121/5/2 127/5/2
f 121/6/2 122/6/2 128/6/2
f 127/5/2 121/5/2 128/5/2
f 122/5/2 116/5/2 129/5/2
f 129/5/2 116/5/2 130/5/2
f 124/5/2 119/5/2 131/5/2
f 119/6/2 125/6/2 132/6/2
f 131/5/2 119/5/2 132/5/2
f 125/6/2 126/6/2 132/6/2
f 126/5/2 127/5/2 133/5/2
f 132/6/2 126/6/2 133/6/2
f 127/6/2 128/6/2 134/6/2
f 133/5/2 127/5/2 134/5/2
f 122/5/2 129/5/2 135/5/2
f 134/6/2 128/6/2 135/6/2
f 128/6/2 122/6/2 135/6/2
f 135/5/2 129/5/2 136/5/2
f 140/5/3 138/5/3 137/5/3
f 140/6/3 139/6/3 138/6/3
f 141/6/3 139/6/3 140/6/3
f 142/5/3 140/5/3 137/5/3
f 142/5/3 141/5/3 140/5/3
f 143/5/3 141/5/3 142/5/3
f 144/6/3 139/6/3 141/6/3
f 144/5/3 141/5/3 143/5/3
f 145/6/3 139/6/3 144/6/3
f 146/4/3 144/4/3 143/4/3
f 147/4/3 144/4/3 146/4/3
f 148/4/3 144/4/3 147/4/3
f 149/4/3 146/4/3 143/4/3
f 149/2/3 147/2/3 146/2/3
f 150/1/3 148/1/3 147/1/3
f 150/2/3 147/2/3 149/2/3
f 151/1/3 148/1/3 150/1/3
f 152/4/3 150/4/3 149/4/3
f 152/2/3 151/2/3 150/2/3
f 153/2/3 151/2/3 152/2/3
f 154/4/3 152/4/3 149/4/3
f 154/4/3 153/4/3 152/4/3
f 155/4/3 153/4/3 154/4/3
f 156/4/3 149/4/3 143/4/3
f 156/4/3 154/4/3 149/4/3
f 157/2/3 155/2/3 154/2/3
f 157/4/3 154/4/3 156/4/3
f 158/2/3 155/2/3 157/2/3
f 159/4/3 156/4/3 143/4/3
f 159/2/3 157/2/3 156/2/3
f 160/1/3 158/1/3 157/1/3
f 160/2/3 157/2/3 159/2/3
f 161/1/3 158/1/3 160/1/3
f 163/4/3 159/4/3 143/4/3
f 163/4/3 160/4/3 159/4/3
f 163/4/3 161/4/3 160/4/3
f 164/4/3 161/4/3 163/4/3
f 166/5/3 164/5/3 163/5/3
f 166/5/3 165/5/3 164/5/3
f 166/5/3 163/5/3 162/5/3
f 167/5/3 165/5/3 166/5/3
f 172/5/3 169/5/3 168/5/3
f 173/5/3 169/5/3 172/5/3
f 176/5/3 171/5/3 170/5/3
f 177/5/3 171/5/3 176/5/3
f 178/4/3 176/4/3 175/4/3
f 179/4/3 176/4/3 178/4/3
f 180/4/3 176/4/3 179/4/3
f 181/1/3 180/1/3 179/1/3
f 182/1/3 180/1/3 181/1/3
f 183/2/3 182/2/3 181/2/3
f 184/2/3 182/2/3 183/2/3
f 185/1/3 184/1/3 183/1/3
f 186/1/3 184/1/3 185/1/3
f 187/4/3 186/4/3 185/4/3
f 189/4/3 174/4/3 173/4/3
f 190/4/3 174/4/3 189/4/3
f 191/4/3 186/4/3 187/4/3
f 192/4/3 186/4/3 191/4/3
f 194/5/3 189/5/3 188/5/3
f 195/5/3 189/5/3 194/5/3
f 196/5/3 193/5/3 192/5/3
f 197/5/3 193/5/3 196/5/3
f 200/5/3 199/5/3 198/5/3
f 201/5/3 199/5/3 200/5/3
f 204/5/3 203/5/3 202/5/3
f 205/5/3 203/5/3 204/5/3
f 206/5/4 207/5/4 208/5/4
f 208/5/4 207/5/4 209/5/4
f 210/5/4 211/5/4 212/5/4
f 212/5/4 211/5/4 213/5/4
f 214/5/4 215/5/4 218/5/4
f 218/5/4 215/5/4 219/5/4
f 216/5/4 217/5/4 222/5/4
f 222/5/4 217/5/4 223/5/4
f 219/4/4 220/4/4 224/4/4
f 224/4/4 220/4/4 225/4/4
f 224/1/4 225/1/4 226/1/4
f 226/1/4 225/1/4 227/1/4
f 226/2/4 227/2/4 228/2/4
f 228/2/4 227/2/4 229/2/4
f 221/4/4 222/4/4 230/4/4
f 230/4/4 222/4/4 231/4/4
f 228/4/4 229/4/4 232/4/4
f 232/4/4 229/4/4 233/4/4
f 230/1/4 231/1/4 234/1/4
f 234/1/4 231/1/4 235/1/4
f 232/2/4 233/2/4 236/2/4
f 236/2/4 233/2/4 237/2/4
f 236/1/4 237/1/4 238/1/4
f 238/1/4 237/1/4 239/1/4
f 238/4/4 239/4/4 241/4/4
f 241/4/4 239/4/4 242/4/4
f 234/4/4 235/4/4 243/4/4
f 243/4/4 235/4/4 244/4/4
f 240/5/4 241/5/4 246/5/4
f 246/5/4 241/5/4 247/5/4
f 244/5/4 245/5/4 248/5/4
f 248/5/4 245/5/4 249/5/4
f 250/5/4 251/5/4 252/5/4
f 252/5/4 251/5/4 253/5/4
f 253/5/4 251/5/4 254/5/4
f 254/5/4 251/5/4 255/5/4
f 253/4/4 254/4/4 256/4/4
f 256/4/4 254/4/4 257/4/4
f 256/2/4 257/2/4 258/2/4
f 257/4/4 254/4/4 259/4/4
f 258/2/4 257/2/4 259/2/4
f 258/4/4 259/4/4 260/4/4
f 259/4/4 254/4/4 261/4/4
f 260/4/4 259/4/4 261/4/4
f 260/2/4 261/2/4 262/2/4
f 261/4/4 254/4/4 263/4/4
f 262/2/4 261/2/4 263/2/4
f 262/4/4 263/4/4 265/4/4
f 263/4/4 254/4/4 266/4/4
f 265/4/4 263/4/4 266/4/4
f 264/5/4 265/5/4 268/5/4
f 266/5/4 267/5/4 268/5/4
f 265/5/4 266/5/4 268/5/4
f 268/5/4 267/5/4 269/5/4
f 274/5/5 273/5/5 272/5/5
f 275/5/5 273/5/5 274/5/5
f 276/5/5 271/5/5 270/5/5
f 277/5/5 271/5/5 276/5/5
f 278/5/5 274/5/5 272/5/5
f 278/6/5 275/6/5 274/6/5
f 279/6/5 275/6/5 278/6/5
f 280/6/5 277/6/5 276/6/5
f 281/5/5 271/5/5 277/5/5
f 281/6/5 277/6/5 280/6/5
f 282/5/5 281/5/5 280/5/5
f 283/5/5 271/5/5 281/5/5
f 283/5/5 281/5/5 282/5/5
f 284/5/5 278/5/5 272/5/5
f 284/5/5 279/5/5 278/5/5
f 285/5/5 279/5/5 284/5/5
f 290/5/5 287/5/5 286/5/5
f 291/5/5 287/5/5 290/5/5
f 292/5/5 289/5/5 288/5/5
f 293/5/5 289/5/5 292/5/5
f 294/4/5 292/4/5 291/4/5
f 295/4/5 292/4/5 294/4/5
f 296/4/5 294/4/5 291/4/5
f 297/1/5 295/1/5 294/1/5
f 297/4/5 294/4/5 296/4/5
f 298/4/5 292/4/5 295/4/5
f 298/1/5 295/1/5 297/1/5
f 299/4/5 292/4/5 298/4/5
f 300/4/5 296/4/5 291/4/5
f 301/1/5 297/1/5 296/1/5
f 301/4/5 296/4/5 300/4/5
f 302/2/5 298/2/5 297/2/5
f 302/1/5 297/1/5 301/1/5
f 303/1/5 299/1/5 298/1/5
f 303/2/5 298/2/5 302/2/5
f 304/4/5 292/4/5 299/4/5
f 304/1/5 299/1/5 303/1/5
f 305/4/5 292/4/5 304/4/5
f 306/4/5 300/4/5 291/4/5
f 306/1/5 301/1/5 300/1/5
f 307/2/5 302/2/5 301/2/5
f 307/1/5 301/1/5 306/1/5
f 308/4/5 303/4/5 302/4/5
f 308/2/5 302/2/5 307/2/5
f 309/2/5 304/2/5 303/2/5
f 309/4/5 303/4/5 308/4/5
f 310/1/5 305/1/5 304/1/5
f 310/2/5 304/2/5 309/2/5
f 311/4/5 292/4/5 305/4/5
f 311/1/5 305/1/5 310/1/5
f 312/2/5 307/2/5 306/2/5
f 312/4/5 306/4/5 291/4/5
f 313/4/5 310/4/5 309/4/5
f 313/2/5 307/2/5 312/2/5
f 313/4/5 309/4/5 308/4/5
f 313/4/5 308/4/5 307/4/5
f 314/2/5 311/2/5 310/2/5
f 314/4/5 310/4/5 313/4/5
f 315/4/5 292/4/5 311/4/5
f 315/2/5 311/2/5 314/2/5
f 316/4/5 314/4/5 313/4/5
f 316/4/5 313/4/5 312/4/5
f 316/4/5 315/4/5 314/4/5
f 317/4/5 315/4/5 316/4/5
f 318/4/5 316/4/5 312/4/5
f 319/1/5 317/1/5 316/1/5
f 319/4/5 316/4/5 318/4/5
f 320/4/5 315/4/5 317/4/5
f 320/1/5 317/1/5 319/1/5
f 321/4/5 315/4/5 320/4/5
f 322/4/5 312/4/5 291/4/5
f 322/4/5 318/4/5 312/4/5
f 323/1/5 319/1/5 318/1/5
f 323/4/5 318/4/5 322/4/5
f 324/2/5 320/2/5 319/2/5
f 324/1/5 319/1/5 323/1/5
f 325/1/5 321/1/5 320/1/5
f 325/2/5 320/2/5 324/2/5
f 326/4/5 315/4/5 321/4/5
f 326/1/5 321/1/5 325/1/5
f 327/4/5 292/4/5 315/4/5
f 327/4/5 315/4/5 326/4/5
f 329/4/5 322/4/5 291/4/5
f 330/1/5 323/1/5 322/1/5
f 330/4/5 322/4/5 329/4/5
f 331/2/5 324/2/5 323/2/5
f 331/1/5 323/1/5 330/1/5
f 332/4/5 325/4/5 324/4/5
f 332/2/5 324/2/5 331/2/5
f 333/2/5 326/2/5 325/2/5
f 333/4/5 325/4/5 332/4/5
f 334/1/5 327/1/5 326/1/5
f 334/2/5 326/2/5 333/2/5
f 335/4/5 292/4/5 327/4/5
f 335/1/5 327/1/5 334/1/5
f 336/4/5 292/4/5 335/4/5
f 338/5/5 329/5/5 328/5/5
f 339/5/5 329/5/5 338/5/5
f 340/5/5 337/5/5 336/5/5
f 341/5/5 337/5/5 340/5/5
f 344/4/5 343/4/5 342/4/5
f 345/4/5 343/4/5 344/4/5
f 354/4/5 347/4/5 346/4/5
f 355/2/5 348/2/5 347/2/5
f 355/4/5 347/4/5 354/4/5
f 356/4/5 349/4/5 348/4/5
f 356/2/5 348/2/5 355/2/5
f 356/4/5 350/4/5 349/4/5
f 356/4/5 351/4/5 350/4/5
f 357/2/5 352/2/5 351/2/5
f 357/4/5 351/4/5 356/4/5
f 358/4/5 353/4/5 352/4/5
f 358/2/5 352/2/5 357/2/5
f 359/4/5 353/4/5 358/4/5
f 364/6/5 361/6/5 360/6/5
f 365/6/5 361/6/5 364/6/5
f 366/6/5 363/6/5 362/6/5
f 367/6/5 363/6/5 366/6/5
f 368/5/5 365/5/5 364/5/5
f 369/5/5 365/5/5 368/5/5
f 370/6/5 369/6/5 368/6/5
f 371/6/5 369/6/5 370/6/5
f 372/5/5 367/5/5 366/5/5
f 373/5/5 367/5/5 372/5/5
f 374/5/5 371/5/5 370/5/5
f 375/5/5 371/5/5 374/5/5
f 376/6/5 373/6/5 372/6/5
f 377/6/5 373/6/5 376/6/5
f 378/5/6 379/5/6 382/5/6
f 382/5/6 379/5/6 383/5/6
f 382/6/6 383/6/6 384/6/6
f 384/6/6 383/6/6 385/6/6
f 380/5/6 381/5/6 386/5/6
f 386/5/6 381/5/6 387/5/6
f 388/4/6 389/4/6 396/4/6
f 389/1/6 390/1/6 397/1/6
f 396/4/6 389/4/6 397/4/6
f 390/2/6 391/2/6 398/2/6
f 397/1/6 390/1/6 398/1/6
f 391/4/6 392/4/6 399/4/6
f 398/2/6 391/2/6 399/2/6
f 392/2/6 393/2/6 400/2/6
f 399/4/6 392/4/6 400/4/6
f 393/1/6 394/1/6 401/1/6
f 400/2/6 393/2/6 401/2/6
f 394/4/6 395/4/6 402/4/6
f 401/1/6 394/1/6 402/1/6
f 402/4/6 395/4/6 403/4/6
f 404/4/6 405/4/6 408/4/6
f 406/4/6 407/4/6 408/4/6
f 405/4/6 406/4/6 408/4/6
f 408/4/6 407/4/6 409/4/6
f 410/6/6 411/6/6 414/6/6
f 414/6/6 411/6/6 415/6/6
f 412/5/6 413/5/6 420/5/6
f 420/5/6 413/5/6 421/5/6
f 415/4/6 416/4/6 422/4/6
f 416/1/6 417/1/6 422/1/6
f 417/2/6 418/2/6 423/2/6
f 422/1/6 417/1/6 423/1/6
f 418/1/6 419/1/6 424/1/6
f 423/2/6 418/2/6 424/2/6
f 419/4/6 420/4/6 425/4/6
f 424/1/6 419/1/6 425/1/6
f 422/4/6 423/4/6 426/4/6
f 423/1/6 424/1/6 426/1/6
f 424/4/6 425/4/6 427/4/6
f 426/1/6 424/1/6 427/1/6
f 422/4/6 426/4/6 428/4/6
f 415/4/6 422/4/6 428/4/6
f 426/4/6 427/4/6 428/4/6
f 428/4/6 427/4/6 429/4/6
f 425/4/6 420/4/6 430/4/6
f 429/4/6 427/4/6 430/4/6
f 427/4/6 425/4/6 430/4/6
f 430/4/6 420/4/6 431/4/6
f 431/4/6 420/4/6 432/4/6
f 428/2/6 429/2/6 433/2/6
f 415/4/6 428/4/6 433/4/6
f 429/4/6 430/4/6 434/4/6
f 433/2/6 429/2/6 434/2/6
f 434/4/6 430/4/6 435/4/6
f 435/4/6 430/4/6 436/4/6
f 430/2/6 431/2/6 437/2/6
f 436/4/6 430/4/6 437/4/6
f 431/4/6 432/4/6 438/4/6
f 437/2/6 431/2/6 438/2/6
f 438/4/6 432/4/6 439/4/6
f 415/4/6 433/4/6 440/4/6
f 433/1/6 434/1/6 440/1/6
f 434/2/6 435/2/6 441/2/6
f 440/1/6 434/1/6 441/1/6
f 435/4/6 436/4/6 442/4/6
f 441/2/6 435/2/6 442/2/6
f 436/2/6 437/2/6 443/2/6
f 442/4/6 436/4/6 443/4/6
f 437/1/6 438/1/6 444/1/6
f 443/2/6 437/2/6 444/2/6
f 438/4/6 439/4/6 445/4/6
f 444/1/6 438/1/6 445/1/6
f 441/1/6 442/1/6 446/1/6
f 440/4/6 441/4/6 446/4/6
f 442/2/6 443/2/6 447/2/6
f 446/1/6 442/1/6 447/1/6
f 443/1/6 444/1/6 448/1/6
f 447/2/6 443/2/6 448/2/6
f 444/4/6 445/4/6 449/4/6
f 448/1/6 444/1/6 449/1/6
f 446/4/6 447/4/6 450/4/6
f 415/4/6 440/4/6 450/4/6
f 440/4/6 446/4/6 450/4/6
f 447/1/6 448/1/6 451/1/6
f 450/4/6 447/4/6 451/4/6
f 448/4/6 449/4/6 452/4/6
f 451/1/6 448/1/6 452/1/6
f 450/4/6 451/4/6 453/4/6
f 451/4/6 452/4/6 453/4/6
f 453/4/6 452/4/6 454/4/6
f 454/4/6 452/4/6 455/4/6
f 449/4/6 445/4/6 456/4/6
f 455/4/6 452/4/6 456/4/6
f 452/4/6 449/4/6 456/4/6
f 445/4/6 439/4/6 457/4/6
f 456/4/6 445/4/6 457/4/6
f 454/2/6 455/2/6 458/2/6
f 453/4/6 454/4/6 458/4/6
f 455/4/6 456/4/6 459/4/6
f 458/2/6 455/2/6 459/2/6
f 459/4/6 456/4/6 460/4/6
f 460/4/6 456/4/6 461/4/6
f 456/2/6 457/2/6 462/2/6
f 461/4/6 456/4/6 462/4/6
f 457/4/6 439/4/6 463/4/6
f 462/2/6 457/2/6 463/2/6
f 453/4/6 458/4/6 464/4/6
f 458/1/6 459/1/6 464/1/6
f 459/2/6 460/2/6 465/2/6
f 464/1/6 459/1/6 465/1/6
f 460/4/6 461/4/6 466/4/6
f 465/2/6 460/2/6 466/2/6
f 461/2/6 462/2/6 467/2/6
f 466/4/6 461/4/6 467/4/6
f 462/1/6 463/1/6 468/1/6
f 467/2/6 462/2/6 468/2/6
f 463/4/6 439/4/6 469/4/6
f 468/1/6 463/1/6 469/1/6
f 465/1/6 466/1/6 470/1/6
f 464/4/6 465/4/6 470/4/6
f 466/2/6 467/2/6 471/2/6
f 470/1/6 466/1/6 471/1/6
f 467/1/6 468/1/6 472/1/6
f 471/2/6 467/2/6 472/2/6
f 468/4/6 469/4/6 473/4/6
f 472/1/6 468/1/6 473/1/6
f 470/4/6 471/4/6 475/4/6
f 464/4/6 470/4/6 475/4/6
f 453/4/6 464/4/6 475/4/6
f 471/1/6 472/1/6 476/1/6
f 475/4/6 471/4/6 476/4/6
f 472/4/6 473/4/6 477/4/6
f 476/1/6 472/1/6 477/1/6
f 473/4/6 469/4/6 478/4/6
f 477/4/6 473/4/6 478/4/6
f 469/4/6 439/4/6 478/4/6
f 474/5/6 475/5/6 480/5/6
f 480/5/6 475/5/6 481/5/6
f 478/5/6 479/5/6 482/5/6
f 482/5/6 479/5/6 483/5/6
f 486/5/6 487/5/6 488/5/6
f 488/5/6 487/5/6 489/5/6
f 486/5/6 488/5/6 490/5/6
f 488/6/6 489/6/6 491/6/6
f 490/5/6 488/5/6 491/5/6
f 490/6/6 491/6/6 492/6/6
f 491/6/6 489/6/6 493/6/6
f 492/6/6 491/6/6 493/6/6
f 484/5/6 485/5/6 494/5/6
f 494/5/6 485/5/6 495/5/6
f 494/6/6 495/6/6 496/6/6
f 496/6/6 495/6/6 497/6/6
f 496/5/6 497/5/6 498/5/6
f 497/6/6 495/6/6 498/6/6
f 498/6/6 495/6/6 499/6/6
f 492/5/6 493/5/6 500/5/6
f 500/5/6 493/5/6 501/5/6
f 492/5/6 500/5/6 502/5/6
f 500/6/6 501/6/6 502/6/6
f 502/6/6 501/6/6 503/6/6
f 498/5/6 499/5/6 504/5/6
f 496/5/6 498/5/6 504/5/6
f 504/5/6 499/5/6 505/5/6
f 502/5/6 503/5/6 506/5/6
f 492/5/6 502/5/6 506/5/6
f 506/5/6 503/5/6 507/5/6
